<svg width="121" height="45" viewBox="0 0 121 45" fill="none" xmlns="http://www.w3.org/2000/svg">
<g clip-path="url(#clip0_12_66)">
<path d="M62.2635 14.905L68.0011 14.5324C68.132 15.4749 68.372 16.1763 68.7647 16.6805C69.3974 17.4695 70.27 17.8641 71.4263 17.8641C72.2771 17.8641 72.9534 17.6668 73.4115 17.2504C73.8479 16.9216 74.1097 16.3955 74.1097 15.8475C74.1097 15.3215 73.8697 14.8173 73.4552 14.4885C73.0189 14.094 71.9935 13.6995 70.3791 13.3488C67.7393 12.7569 65.8413 11.9678 64.7287 10.9596C63.6161 10.017 62.9834 8.63613 63.027 7.16755C63.027 6.15927 63.3325 5.15099 63.8997 4.31806C64.5542 3.37554 65.4486 2.63029 66.5176 2.21383C67.6739 1.70969 69.2883 1.44666 71.3172 1.44666C73.8042 1.44666 75.7022 1.90696 77.0112 2.84948C78.3202 3.77008 79.1056 5.26059 79.3456 7.29907L73.6733 7.62785C73.5206 6.75109 73.2152 6.11543 72.7134 5.69897C72.2116 5.28251 71.5572 5.08523 70.7063 5.08523C70.0082 5.08523 69.4846 5.23867 69.1356 5.52362C68.8083 5.78665 68.5902 6.18119 68.612 6.61957C68.612 6.94836 68.7865 7.25523 69.0483 7.4525C69.3319 7.71553 70.0082 7.95664 71.0772 8.17583C73.717 8.74573 75.5932 9.31563 76.7494 9.90744C77.9057 10.4993 78.7347 11.2226 79.2365 12.0774C79.7601 12.9542 80.0219 13.9625 80 14.9927C80 16.2202 79.651 17.4476 78.9529 18.4778C78.2329 19.5519 77.2294 20.3848 76.0513 20.8889C74.8078 21.4369 73.237 21.7219 71.3608 21.7219C68.0448 21.7219 65.7541 21.0862 64.4669 19.793C63.1797 18.4998 62.4162 16.8777 62.2635 14.905ZM1.37442 21.3931V1.79736H11.4317C13.2861 1.79736 14.7259 1.9508 15.7077 2.27958C16.6676 2.58645 17.5184 3.22211 18.0856 4.07695C18.7183 5.01948 19.0237 6.11543 19.0019 7.25523C19.0674 9.18411 18.0856 11.0253 16.4058 11.9898C15.7513 12.3624 15.0314 12.6254 14.2896 12.7569C14.835 12.9104 15.3804 13.1734 15.8604 13.4803C16.2313 13.7871 16.5367 14.1378 16.8203 14.5105C17.1475 14.8831 17.4312 15.2996 17.6711 15.7379L20.5945 21.415H13.7442L10.5154 15.3872C10.1009 14.6201 9.75185 14.1159 9.4246 13.8748C8.98828 13.5679 8.46469 13.4145 7.9411 13.4145H7.41751V21.3712H1.37442V21.3931ZM7.41751 9.73209H9.97001C10.5154 9.68825 11.039 9.60058 11.5626 9.46906C11.9553 9.4033 12.3043 9.18411 12.5443 8.85533C13.1334 8.06624 13.0461 6.94836 12.3262 6.26887C11.9335 5.94008 11.1699 5.76473 10.0791 5.76473H7.41751V9.73209ZM0 38.1831L5.73766 37.8105C5.86856 38.753 6.10854 39.4544 6.50123 39.9586C7.11208 40.7477 8.00655 41.1641 9.16281 41.1641C10.0136 41.1641 10.6899 40.9669 11.1481 40.5504C11.5844 40.1997 11.8462 39.6956 11.8462 39.1476C11.8462 38.6215 11.6062 38.1174 11.1917 37.7886C10.7554 37.394 9.73003 36.9995 8.09381 36.6488C5.45405 36.057 3.55604 35.2679 2.44342 34.2596C1.33079 33.3171 0.698119 31.9362 0.741751 30.4676C0.741751 29.4593 1.04718 28.451 1.6144 27.6181C2.26889 26.6756 3.16335 25.9303 4.23234 25.5139C5.3886 25.0097 7.003 24.7467 9.03191 24.7467C11.519 24.7467 13.417 25.207 14.7259 26.1495C16.0349 27.0921 16.7985 28.5606 17.0385 30.5991L11.3662 30.9279C11.2135 30.0511 10.9081 29.4155 10.4063 28.999C9.92638 28.5826 9.25007 28.3853 8.39924 28.4072C7.70112 28.4072 7.17753 28.5606 6.82847 28.8675C6.47941 29.1305 6.28307 29.5251 6.30488 29.9635C6.30488 30.2922 6.47941 30.5991 6.74121 30.7964C7.02482 31.0594 7.70112 31.3005 8.77012 31.5197C11.4099 32.0896 13.2861 32.6595 14.4423 33.2513C15.5986 33.8431 16.4276 34.5665 16.9294 35.4213C17.453 36.2981 17.7148 37.3064 17.7148 38.3147C17.7148 39.5421 17.3439 40.7477 16.6676 41.7779C15.9476 42.8519 14.9441 43.6848 13.766 44.189C12.5225 44.737 10.9517 45.0219 9.07554 45.0219C5.75948 45.0219 3.46878 44.3863 2.18162 43.093C0.894465 41.7779 0.17453 40.1559 0 38.1831H0Z" fill="white"/>
<path d="M29.0156 36.6488L34.2951 38.2489C34.0115 39.586 33.4224 40.8573 32.6152 41.9752C31.8735 42.9615 30.8917 43.7287 29.7791 44.2328C28.6447 44.737 27.2048 45 25.4595 45C23.3433 45 21.598 44.6931 20.2673 44.0794C18.9146 43.4657 17.7584 42.3697 16.7767 40.8134C15.7949 39.2572 15.315 37.2625 15.315 34.8295C15.315 31.5855 16.1658 29.0867 17.8893 27.3551C19.6128 25.6235 22.0344 24.7467 25.1759 24.7467C27.6411 24.7467 29.561 25.2508 30.979 26.2372C32.3752 27.2455 33.4224 28.7798 34.1205 30.8402L28.7974 32.0239C28.6665 31.5636 28.4701 31.1033 28.2084 30.7087C27.8811 30.2484 27.4666 29.8977 26.9648 29.6347C26.4631 29.3716 25.8958 29.262 25.3286 29.262C23.9542 29.262 22.907 29.81 22.1871 30.9279C21.6417 31.7389 21.3581 33.0321 21.3581 34.7857C21.3581 36.9557 21.6853 38.4462 22.3398 39.2572C22.9943 40.0682 23.9106 40.4627 25.1104 40.4627C26.2667 40.4627 27.1394 40.1339 27.7284 39.4983C28.3174 38.8188 28.7538 37.8763 29.0156 36.6488ZM41.3417 25.0755H47.363V31.9362H53.9515V25.0755H60.0164V44.6712H53.9515V36.7365H47.363V44.6712H41.3417V25.0755Z" fill="white"/>
<path d="M59.1874 34.8734C59.1874 31.6732 60.0818 29.1744 61.849 27.399C63.6161 25.6235 66.1031 24.7249 69.2665 24.7249C72.5171 24.7249 75.0041 25.6016 76.7712 27.3552C78.5384 29.1087 79.411 31.5636 79.411 34.72C79.411 37.0215 79.0183 38.8846 78.2547 40.3532C77.513 41.7999 76.3567 42.9835 74.9387 43.7726C73.477 44.5836 71.6663 45.0001 69.5064 45.0001C67.303 45.0001 65.4923 44.6494 64.0524 43.9479C62.5689 43.2027 61.3472 42.041 60.54 40.6162C59.6455 39.0819 59.1874 37.1749 59.1874 34.8734ZM65.2087 34.8953C65.2087 36.8681 65.5795 38.2928 66.2995 39.1696C67.0194 40.0244 68.0229 40.4628 69.2883 40.4628C70.5754 40.4628 71.579 40.0463 72.2989 39.1915C73.0189 38.3366 73.3679 36.8242 73.3679 34.6323C73.3679 32.7911 72.997 31.4321 72.2553 30.5992C71.5135 29.7443 70.51 29.3279 69.2447 29.3279C68.132 29.284 67.063 29.7663 66.3213 30.6211C65.5795 31.4759 65.2087 32.9007 65.2087 34.8953ZM85.585 34.8734C85.585 31.6732 86.4795 29.1744 88.2466 27.399C90.0137 25.6235 92.5007 24.7249 95.6641 24.7249C98.9147 24.7249 101.424 25.6016 103.169 27.3552C104.914 29.1087 105.809 31.5636 105.809 34.72C105.809 37.0215 105.416 38.8846 104.652 40.3532C103.911 41.7999 102.754 42.9835 101.336 43.7726C99.8746 44.5836 98.0639 45.0001 95.9041 45.0001C93.7006 45.0001 91.8899 44.6494 90.45 43.9479C88.9665 43.2027 87.7448 42.041 86.9376 40.6162C86.0431 39.0819 85.585 37.1749 85.585 34.8734ZM91.6063 34.8953C91.6063 36.8681 91.9771 38.2928 92.6971 39.1696C93.417 40.0244 94.4206 40.4628 95.6859 40.4628C96.9731 40.4628 97.9766 40.0463 98.6965 39.1915C99.4165 38.3366 99.7655 36.8242 99.7655 34.6323C99.7655 32.7911 99.3947 31.4321 98.6529 30.5992C97.9112 29.7443 96.9076 29.3279 95.6423 29.3279C94.5296 29.284 93.4388 29.7663 92.7189 30.6211C91.9771 31.4759 91.6063 32.9007 91.6063 34.8953Z" fill="white"/>
<path d="M105.176 25.0754H111.197V39.8489H120.6V44.6712H105.154V25.0754H105.176Z" fill="white"/>
<path d="M98.5392 23.9445C104.601 19.3547 106.471 11.5741 102.715 6.56617C98.9583 1.55823 90.999 1.21931 84.9369 5.80918C78.8748 10.399 77.0054 18.1796 80.7616 23.1876C84.5177 28.1955 92.477 28.5344 98.5392 23.9445Z" stroke="white" stroke-width="4" stroke-miterlimit="10"/>
<path d="M85.6068 13.4364L87.7884 11.902L90.4718 15.7379C90.93 16.3516 91.279 17.0092 91.5408 17.7325C91.6935 18.2805 91.6499 18.8723 91.4317 19.3984C91.1481 20.056 90.69 20.6039 90.0791 20.9985C89.3592 21.5026 88.7483 21.7876 88.2247 21.8753C87.723 21.9629 87.1994 21.8753 86.7194 21.6561C86.1958 21.393 85.7377 21.0204 85.3886 20.5382L87.2648 18.7847C87.4176 19.0258 87.6139 19.245 87.8321 19.4203C87.9848 19.5299 88.1593 19.5957 88.3556 19.5957C88.5084 19.5957 88.6611 19.5299 88.7702 19.4422C88.9883 19.3107 89.141 19.0477 89.1192 18.7847C89.0538 18.412 88.9011 18.0394 88.6611 17.7545L85.6068 13.4364ZM92.1517 15.8694L94.1369 14.2912C94.3551 14.5543 94.6387 14.7515 94.9441 14.8611C95.3805 14.9926 95.8386 14.905 96.2095 14.62C96.4713 14.4447 96.6894 14.2036 96.7767 13.8967C96.9076 13.5021 96.6894 13.0638 96.2967 12.9322C96.2313 12.9103 96.1658 12.8884 96.1004 12.8884C95.8386 12.8665 95.3805 12.9761 94.7042 13.261C93.5915 13.7213 92.7189 13.8967 92.0644 13.8309C91.4317 13.7652 90.8427 13.4364 90.4936 12.8884C90.2318 12.5158 90.1009 12.0774 90.0791 11.639C90.0791 11.1349 90.21 10.6307 90.4936 10.2143C90.9081 9.62246 91.4099 9.11832 92.0208 8.72377C92.937 8.08812 93.7442 7.78125 94.4424 7.78125C95.1405 7.78125 95.795 8.11004 96.4058 8.78953L94.4424 10.3458C94.0497 9.84165 93.3079 9.73205 92.8062 10.1266L92.7407 10.1924C92.5225 10.3239 92.3698 10.5211 92.2826 10.7623C92.2171 10.9376 92.2607 11.1349 92.3698 11.2883C92.4571 11.3979 92.588 11.4856 92.7407 11.4856C92.9152 11.5075 93.2207 11.4198 93.657 11.2226C94.7478 10.7623 95.5768 10.4992 96.144 10.4115C96.624 10.3239 97.1258 10.3677 97.5839 10.565C97.9984 10.7403 98.3475 11.0472 98.5874 11.4198C98.8929 11.8582 99.0674 12.3843 99.0892 12.9322C99.111 13.5021 98.9583 14.0501 98.6529 14.5323C98.2602 15.1242 97.7584 15.6283 97.1694 16.0228C95.9695 16.8558 94.9878 17.2065 94.2024 17.075C93.3516 16.9435 92.6534 16.5051 92.1517 15.8694Z" fill="white"/>
</g>
<defs>
<clipPath id="clip0_12_66">
<rect width="120.6" height="45" fill="white"/>
</clipPath>
</defs>
</svg>
